PathFileType	4	(x/y/z)	S08_P20_T19
DataRate	CameraRate	NumFrames	NumMarkers	Units	OrigDataRate	OrigDataStartFrame	OrigNumFrames
240	240	11	51	mm	240	247	394
Frame#	Time	Sternum			R.Acromium			L.Acromium			Top.Head			R.ASIS			L.ASIS			R.PSIS			L.PSIS			R.Great.Tro			L.Great.Tro			R.Iliac.Crest			L.Iliac.Crest			V.Sacral			R.Thigh.Upper.Post			R.Thigh.Lower.Ant			R.Thigh.Lower.Post			R.Thigh.Upper.Ant			R.Knee.Lat			R.Knee.Med			R.Shank.Upper.Post			R.Shank.Lower.Ant			R.Shank.Lower.Post			R.Shank.Upper.Ant			R.Ankle.Lat			R.Ankle.Med			R.Heel.Upper			R.Heel.Med			R.Heel.Lat			R.Toe.Lat			R.Toe.Med			R.Toe.Tip			L.Thigh.Upper.Post			L.Thigh.Lower.Ant			L.Thigh.Lower.Post			L.Thigh.Upper.Ant			L.Knee.Lat			L.Knee.Med			L.Shank.Upper.Post			L.Shank.Lower.Ant			L.Shank.Lower.Post			L.Shank.Upper.Ant			L.Ankle.Lat			L.Ankle.Med			L.Heel.Upper			L.Heel.Med			L.Heel.Lat			L.Toe.Lat			L.Toe.Med			L.Toe.Tip			Cervical.Spine			Back			
		X1	Y1	Z1	X2	Y2	Z2	X3	Y3	Z3	X4	Y4	Z4	X5	Y5	Z5	X6	Y6	Z6	X7	Y7	Z7	X8	Y8	Z8	X9	Y9	Z9	X10	Y10	Z10	X11	Y11	Z11	X12	Y12	Z12	X13	Y13	Z13	X14	Y14	Z14	X15	Y15	Z15	X16	Y16	Z16	X17	Y17	Z17	X18	Y18	Z18	X19	Y19	Z19	X20	Y20	Z20	X21	Y21	Z21	X22	Y22	Z22	X23	Y23	Z23	X24	Y24	Z24	X25	Y25	Z25	X26	Y26	Z26	X27	Y27	Z27	X28	Y28	Z28	X29	Y29	Z29	X30	Y30	Z30	X31	Y31	Z31	X32	Y32	Z32	X33	Y33	Z33	X34	Y34	Z34	X35	Y35	Z35	X36	Y36	Z36	X37	Y37	Z37	X38	Y38	Z38	X39	Y39	Z39	X40	Y40	Z40	X41	Y41	Z41	X42	Y42	Z42	X43	Y43	Z43	X44	Y44	Z44	X45	Y45	Z45	X46	Y46	Z46	X47	Y47	Z47	X48	Y48	Z48	X49	Y49	Z49	X50	Y50	Z50	X51	Y51	Z51	

247	1.025	19.133	1217.4	298.34	-93.417	1451.6	477.92	-122.61	1475.6	141.57	-98.836	1772	331.18	-7.3783	1001.4	413.66	-5.9381	1009.8	183.57	-207.7	1023.2	337.33	-204.82	1028.4	244.12	-80.318	888.76	481.56	-80.629	900.09	112.02	-103.68	1068	460.12	-104.01	1088.8	152.2	-222.13	984.53	288.87	-114.02	686.85	464.32	-36.121	586.51	439.28	-106.82	597.41	446.35	-35.756	680.74	458.11	-84.126	493.09	433.76	-89.905	496.01	304.38	-247.04	389.94	433.58	-241.11	301.75	414.86	-297.48	332.48	424.91	-190	360.07	426.26	-406.62	208.97	392.65	-371.05	199.82	313.66	-457.89	223.03	341.4	-469.54	201.29	310.4	-476.01	201.55	372.25	NaN	NaN	NaN	-352.2	67.277	292.51	-301.83	38.776	336.74	-34.352	687.19	133.94	74.917	630.14	161.6	8.9124	609.97	155.79	35.704	706.51	134.71	52.929	522.25	175.51	51.555	524.77	301.09	12.5	337.79	173.91	84.608	256.23	200.5	13.844	265.33	190.14	76.886	330.79	184.07	45.028	98.464	207.28	67.49	105.06	295.12	-7.0706	74.46	256.85	7.733	39.94	288.33	2.3746	46.361	224.37	178.71	41.833	196	195.15	48.114	310.7	258.53	68.676	263.67	-176.5	1507.2	308.97	-216.46	1223.6	319.78
248	1.0292	24.614	1218.1	298.15	-88.075	1452.3	477.61	-116.78	1476.3	141.33	-93.385	1772.7	330.87	-1.8524	1001.8	413.16	-0.59611	1010.6	183.11	-202.28	1023.8	337.32	-199.46	1029.2	244.11	-74.155	888.76	481.15	-75.541	901.1	111.61	-98.143	1068.2	459.94	-98.681	1089.7	152.01	-216.75	985.19	288.7	-105.29	686.34	464.47	-26.176	586.92	439.84	-97.018	596.94	446.78	-26.938	681.22	458.39	-72.809	493.11	434.4	-77.858	495.52	304.7	-236.35	391.99	434.17	-231.61	303.67	415.59	-287.58	335.2	425.59	-179.71	361.33	426.89	-398.07	213.5	393.84	-362.79	203.47	314.6	-448.5	229.64	342.55	-460.96	208.44	311.36	-467.43	208.67	373.31	NaN	NaN	NaN	-348.09	69.881	293.16	-298.89	38.69	337.21	-30.133	687.82	133.23	78.757	630.3	161.22	12.687	610.43	155.2	39.985	706.85	134.26	55.973	522.29	175.09	54.589	524.86	300.67	14.248	337.98	173.62	85.831	255.97	200.29	15.123	265.53	189.94	78.592	330.57	183.74	45.153	98.486	207.31	67.619	105.02	295.1	-7.0507	74.52	256.8	7.7359	39.99	288.32	2.3691	46.388	224.34	178.74	41.712	195.84	195.18	47.87	310.64	258.57	68.294	263.59	-170.98	1507.8	308.59	-210.93	1224.2	319.41
249	1.0333	30.075	1218.8	297.96	-82.737	1453	477.32	-110.95	1477.1	141.11	-87.938	1773.3	330.57	3.6203	1002.2	412.68	4.7205	1011.4	182.66	-196.92	1024.3	337.29	-194.14	1030	244.1	-68.058	888.8	480.75	-70.503	902.09	111.22	-92.665	1068.5	459.76	-93.368	1090.5	151.82	-211.42	985.85	288.52	-96.566	685.92	464.62	-16.244	587.43	440.4	-87.22	596.58	447.19	-18.134	681.78	458.67	-61.462	493.24	435.01	-65.864	495.2	304.99	-225.53	394.05	434.75	-221.95	305.63	416.25	-277.53	337.91	426.24	-169.29	362.64	427.47	-389.29	217.98	394.97	-354.32	207.1	315.49	-438.89	236.07	343.64	-452.11	215.38	312.27	-458.58	215.62	374.33	NaN	NaN	NaN	-343.53	72.569	293.84	-295.49	38.702	337.76	-26.07	688.43	132.57	82.433	630.4	160.81	16.286	610.85	154.65	44.122	707.14	133.8	58.858	522.32	174.67	57.459	524.93	300.23	15.903	338.16	173.34	86.98	255.72	200.07	16.328	265.73	189.74	80.206	330.36	183.42	45.262	98.513	207.33	67.733	104.99	295.08	-7.0342	74.568	256.76	7.7429	40.035	288.31	2.3671	46.407	224.32	178.76	41.616	195.68	195.22	47.667	310.6	258.61	67.966	263.52	-165.46	1508.4	308.22	-205.42	1224.9	319.04
250	1.0375	35.518	1219.4	297.8	-77.403	1453.7	477.05	-105.13	1477.9	140.91	-82.494	1774	330.29	9.0399	1002.6	412.23	10.015	1012.2	182.23	-191.6	1024.9	337.24	-188.84	1030.9	244.06	-62.028	888.87	480.36	-65.511	903.06	110.85	-87.243	1068.8	459.58	-88.066	1091.4	151.63	-206.12	986.52	288.34	-87.85	685.59	464.76	-6.3359	588.05	440.93	-77.438	596.31	447.56	-9.3492	682.43	458.95	-50.101	493.48	435.59	-53.954	495.05	305.25	-214.61	396.13	435.32	-212.14	307.63	416.86	-267.32	340.62	426.86	-158.75	364.01	428	-380.29	222.4	396.02	-345.64	210.72	316.33	-429.09	242.28	344.65	-443.01	222.04	313.15	-449.49	222.33	375.3	NaN	NaN	NaN	-338.49	75.316	294.57	-291.58	38.828	338.38	-22.164	689.03	131.96	85.944	630.43	160.39	19.709	611.25	154.12	48.115	707.37	133.33	61.59	522.32	174.25	60.158	524.98	299.79	17.469	338.33	173.08	88.062	255.49	199.86	17.464	265.91	189.56	81.733	330.16	183.1	45.359	98.543	207.34	67.835	104.96	295.06	-7.0197	74.607	256.71	7.7531	40.076	288.3	2.3684	46.422	224.29	178.79	41.538	195.53	195.25	47.495	310.55	258.64	67.683	263.44	-159.94	1509	307.88	-199.94	1225.7	318.68
251	1.0417	40.943	1220.1	297.65	-72.074	1454.4	476.8	-99.327	1478.7	140.72	-77.052	1774.6	330.03	14.407	1003.1	411.8	15.288	1013	181.82	-186.32	1025.5	337.16	-183.57	1031.7	244	-56.066	888.98	479.98	-60.564	903.98	110.49	-81.877	1069.1	459.4	-82.77	1092.3	151.44	-200.87	987.2	288.13	-79.151	685.36	464.89	3.5399	588.78	441.44	-67.68	596.16	447.9	-0.59099	683.16	459.22	-38.741	493.85	436.14	-42.157	495.09	305.49	-203.59	398.21	435.87	-202.19	309.66	417.41	-256.99	343.3	427.46	-148.11	365.42	428.48	-371.1	226.73	396.98	-336.75	214.29	317.12	-419.15	248.2	345.58	-433.7	228.38	313.97	-440.18	228.75	376.2	NaN	NaN	NaN	-332.94	78.096	295.33	-287.1	39.087	339.08	-18.416	689.61	131.41	89.293	630.39	159.95	22.959	611.61	153.63	51.966	707.55	132.85	64.175	522.31	173.86	62.688	525.02	299.35	18.953	338.5	172.83	89.08	255.26	199.65	18.537	266.08	189.39	83.177	329.95	182.79	45.445	98.578	207.35	67.929	104.95	295.04	-7.0059	74.638	256.67	7.7655	40.113	288.29	2.3726	46.434	224.25	178.82	41.473	195.39	195.28	47.347	310.51	258.66	67.432	263.37	-154.42	1509.7	307.56	-194.48	1226.4	318.33
252	1.0458	46.354	1220.8	297.53	-66.749	1455.1	476.57	-93.536	1479.5	140.54	-71.611	1775.3	329.78	19.725	1003.5	411.41	20.544	1013.7	181.43	-181.08	1026.1	337.06	-178.32	1032.5	243.91	-50.173	889.13	479.62	-55.66	904.88	110.14	-76.564	1069.4	459.21	-77.477	1093.1	151.25	-195.65	987.9	287.91	-70.475	685.23	464.99	13.377	589.63	441.93	-57.95	596.12	448.19	8.1363	683.99	459.48	-27.396	494.36	436.65	-30.498	495.32	305.69	-192.5	400.29	436.4	-192.1	311.7	417.89	-246.54	345.95	428.02	-137.38	366.87	428.91	-361.72	230.95	397.85	-327.68	217.79	317.85	-409.09	253.82	346.41	-424.2	234.35	314.72	-430.69	234.84	377.03	NaN	NaN	NaN	-326.85	80.881	296.13	-282.03	39.499	339.87	-14.82	690.18	130.93	92.485	630.3	159.5	26.042	611.94	153.17	55.682	707.68	132.37	66.621	522.28	173.48	65.054	525.03	298.91	20.359	338.65	172.6	90.039	255.04	199.46	19.551	266.25	189.24	84.545	329.76	182.51	45.524	98.617	207.36	68.016	104.94	295.02	-6.9918	74.663	256.63	7.7795	40.145	288.28	2.3795	46.446	224.22	178.85	41.416	195.26	195.31	47.216	310.48	258.68	67.206	263.3	-148.91	1510.4	307.26	-189.05	1227.1	317.98
253	1.05	51.751	1221.4	297.42	-61.43	1455.8	476.36	-87.761	1480.3	140.38	-66.171	1776	329.55	24.994	1003.9	411.05	25.784	1014.4	181.06	-175.88	1026.7	336.93	-173.1	1033.3	243.8	-44.347	889.34	479.26	-50.798	905.74	109.81	-71.303	1069.7	459.02	-72.184	1093.9	151.06	-190.47	988.6	287.67	-61.826	685.22	465.07	23.169	590.59	442.38	-48.254	596.21	448.43	16.829	684.92	459.73	-16.081	494.99	437.12	-18.996	495.74	305.87	-181.35	402.35	436.92	-181.89	313.75	418.31	-235.99	348.55	428.56	-126.57	368.37	429.29	-352.18	235.02	398.61	-318.43	221.22	318.52	-398.95	259.09	347.14	-414.54	239.9	315.41	-421.04	240.55	377.77	NaN	NaN	NaN	-320.2	83.644	296.97	-276.31	40.078	340.73	-11.37	690.75	130.51	95.529	630.15	159.04	28.969	612.25	152.76	59.269	707.76	131.9	68.939	522.25	173.13	67.269	525.03	298.48	21.691	338.8	172.39	90.945	254.84	199.27	20.51	266.41	189.1	85.84	329.57	182.24	45.598	98.659	207.37	68.099	104.93	295.01	-6.9765	74.684	256.59	7.794	40.175	288.26	2.3888	46.459	224.2	178.88	41.365	195.13	195.35	47.096	310.45	258.7	66.996	263.24	-143.4	1511.1	306.98	-183.64	1227.9	317.63
254	1.0542	57.135	1222	297.33	-56.116	1456.5	476.17	-82.001	1481.1	140.23	-60.729	1776.7	329.33	30.218	1004.3	410.72	31.009	1015.1	180.71	-170.71	1027.3	336.77	-167.89	1034.2	243.65	-38.589	889.59	478.92	-45.978	906.57	109.5	-66.091	1070	458.81	-66.889	1094.8	150.86	-185.31	989.32	287.42	-53.208	685.32	465.12	32.914	591.68	442.8	-38.596	596.43	448.61	25.484	685.95	459.96	-4.8064	495.77	437.56	-7.6648	496.36	306.02	-170.16	404.4	437.42	-171.57	315.8	418.67	-225.34	351.09	429.07	-115.7	369.91	429.61	-342.49	238.94	399.27	-309	224.54	319.13	-388.74	263.99	347.77	-404.74	245	316.02	-411.24	245.84	378.43	NaN	NaN	NaN	-312.98	86.359	297.85	-269.9	40.836	341.68	-8.0558	691.31	130.17	98.435	629.95	158.59	31.751	612.54	152.38	62.736	707.8	131.43	71.138	522.21	172.8	69.349	525.02	298.06	22.953	338.95	172.2	91.8	254.65	199.1	21.418	266.57	188.98	87.066	329.39	181.99	45.67	98.705	207.39	68.18	104.93	295	-6.9591	74.702	256.56	7.8085	40.203	288.25	2.4006	46.475	224.17	178.91	41.316	195.02	195.38	46.984	310.44	258.73	66.796	263.18	-137.88	1511.8	306.73	-178.24	1228.6	317.28
255	1.0583	62.509	1222.7	297.26	-50.808	1457.1	476.01	-76.257	1481.9	140.09	-55.284	1777.4	329.14	35.4	1004.7	410.42	36.22	1015.8	180.39	-165.58	1028	336.58	-162.7	1035	243.48	-32.894	889.9	478.58	-41.199	907.36	109.2	-60.926	1070.4	458.6	-61.589	1095.5	150.66	-180.19	990.05	287.14	-44.622	685.53	465.14	42.608	592.9	443.17	-28.977	596.78	448.75	34.1	687.09	460.17	6.4159	496.69	437.95	3.4899	497.15	306.13	-158.94	406.42	437.9	-161.15	317.83	418.97	-214.61	353.56	429.54	-104.77	371.48	429.89	-332.65	242.68	399.81	-299.4	227.75	319.68	-378.5	268.48	348.29	-394.82	249.63	316.56	-401.33	250.69	379	NaN	NaN	NaN	-305.16	89	298.76	-262.77	41.778	342.72	-4.8658	691.87	129.88	101.21	629.72	158.14	34.402	612.81	152.04	66.093	707.81	130.97	73.229	522.16	172.5	71.314	525	297.66	24.148	339.09	172.04	92.609	254.47	198.95	22.279	266.72	188.88	88.228	329.23	181.76	45.741	98.753	207.4	68.261	104.93	295	-6.9389	74.718	256.54	7.8221	40.229	288.23	2.4146	46.495	224.14	178.94	41.267	194.91	195.42	46.875	310.43	258.76	66.599	263.13	-132.37	1512.5	306.49	-172.87	1229.4	316.94
256	1.0625	67.873	1223.3	297.21	-45.505	1457.8	475.87	-70.531	1482.7	139.96	-49.836	1778.1	328.97	40.544	1005.2	410.14	41.418	1016.4	180.08	-160.47	1028.6	336.36	-157.53	1035.8	243.28	-27.262	890.27	478.26	-36.461	908.13	108.92	-55.803	1070.8	458.39	-56.286	1096.3	150.45	-175.09	990.8	286.83	-36.071	685.86	465.13	52.25	594.24	443.5	-19.4	597.26	448.83	42.676	688.32	460.35	17.576	497.74	438.29	14.468	498.12	306.22	-147.71	408.4	438.35	-150.63	319.85	419.21	-203.81	355.94	429.99	-93.808	373.07	430.11	-322.68	246.22	400.25	-289.64	230.81	320.17	-368.23	272.55	348.71	-384.8	253.76	317.03	-391.32	255.07	379.48	NaN	NaN	NaN	-296.75	91.543	299.72	-254.92	42.902	343.83	-1.7856	692.44	129.66	103.88	629.46	157.7	36.936	613.07	151.74	69.353	707.78	130.52	75.222	522.11	172.22	73.186	524.96	297.29	25.282	339.23	171.9	93.375	254.31	198.8	23.096	266.87	188.79	89.329	329.07	181.55	45.813	98.803	207.43	68.342	104.93	295.01	-6.9153	74.734	256.52	7.8342	40.254	288.21	2.431	46.521	224.12	178.97	41.216	194.82	195.47	46.766	310.42	258.79	66.403	263.09	-126.86	1513.3	306.28	-167.52	1230.2	316.6
257	1.0667	73.227	1223.9	297.18	-40.207	1458.4	475.75	-64.823	1483.5	139.84	-44.384	1778.8	328.81	45.653	1005.6	409.89	46.603	1017.1	179.79	-155.39	1029.3	336.11	-152.37	1036.6	243.05	-21.688	890.7	477.94	-31.763	908.86	108.67	-50.72	1071.2	458.16	-50.978	1097.1	150.24	-170.02	991.56	286.51	-27.556	686.31	465.09	61.838	595.7	443.78	-9.865	597.87	448.86	51.21	689.66	460.5	28.665	498.93	438.59	25.274	499.26	306.28	-136.49	410.35	438.77	-140.02	321.84	419.4	-192.96	358.22	430.4	-82.811	374.7	430.29	-312.57	249.53	400.57	-279.7	233.71	320.61	-357.94	276.18	349.03	-374.68	257.38	317.42	-381.2	258.97	379.88	NaN	NaN	NaN	-287.74	93.964	300.71	-246.32	44.195	345.02	1.201	693.01	129.49	106.45	629.18	157.27	39.371	613.33	151.46	72.528	707.74	130.1	77.125	522.06	171.98	74.989	524.92	296.95	26.357	339.37	171.78	94.102	254.17	198.68	23.872	267.03	188.72	90.374	328.93	181.37	45.888	98.856	207.46	68.425	104.94	295.02	-6.8875	74.751	256.51	7.844	40.279	288.19	2.4497	46.552	224.1	179.01	41.162	194.73	195.52	46.655	310.43	258.83	66.203	263.05	-121.35	1514	306.08	-162.18	1231	316.26
